<svg xmlns="http://www.w3.org/2000/svg" xmlns:ev="http://www.w3.org/2001/xml-events" xmlns:xlink="http://www.w3.org/1999/xlink" width="602.361" height="711.634" class="st33" color-interpolation-filters="sRGB" viewBox="0 0 451.77 533.725" xml:space="preserve"><style type="text/css">.st1,.st2{stroke-linecap:round;stroke-linejoin:round;stroke-width:.5}.st1{fill:#5b9bd5;stroke:#fff}.st2{stroke:#5592c9;stroke-dasharray:3.5,2.5}.st3{fill:#fff;font-family:Calibri;font-size:1.00001em;font-weight:700}.st4{font-size:1em}.st5{font-size:.499989em}.st6,.st7{stroke:#6ca43d}.st6{marker-end:url(#mrkr4-52);stroke-linecap:round;stroke-linejoin:round;stroke-width:.5}.st7{fill:#6ca43d;fill-opacity:1;stroke-opacity:1;stroke-width:.13368983957219}.st8{fill:#fff;stroke:none;stroke-linecap:butt;stroke-width:7.2}.st9{fill:#53802e;font-family:Calibri;font-size:.666664em}.st10,.st11{stroke:#0070c0}.st10{marker-end:url(#mrkr4-60);stroke-linecap:round;stroke-linejoin:round;stroke-width:3.75}.st11{fill:#0070c0;fill-opacity:1;stroke-opacity:1;stroke-width:.53648068669528}.st12{fill:#0070c0;font-family:Calibri;font-size:.666664em}.st13{marker-end:url(#mrkr4-69);stroke:#000;stroke-linecap:round;stroke-linejoin:round;stroke-width:.5}.st14{fill:#000;fill-opacity:1;stroke:#000;stroke-opacity:1;stroke-width:.13368983957219}.st15{fill:#000;font-family:Calibri;font-size:.666664em}.st16{marker-end:url(#mrkr3-84);stroke:#6ca43d;stroke-dasharray:3.5,2.5;stroke-linecap:round;stroke-linejoin:round;stroke-width:.5}.st17,.st18{stroke:#7030a0}.st17{marker-end:url(#mrkr3-92);stroke-dasharray:3.5,2.5;stroke-linecap:round;stroke-linejoin:round;stroke-width:.5}.st18{fill:#7030a0;fill-opacity:1;stroke-opacity:1;stroke-width:.13368983957219}.st19{fill:#fff;stroke:none;stroke-linecap:butt}.st20{fill:#7030a0;font-family:Calibri;font-size:.666664em}.st21{marker-end:url(#mrkr4-108);stroke:#7030a0;stroke-linecap:round;stroke-linejoin:round;stroke-width:.5}.st22,.st23{stroke:#0070c0}.st22{marker-end:url(#mrkr3-139);stroke-dasharray:21,15;stroke-linecap:round;stroke-linejoin:round;stroke-width:3}.st23{fill:#0070c0;fill-opacity:1;stroke-opacity:1;stroke-width:.48076923076923}.st24{fill:none;stroke:none;stroke-linecap:round;stroke-linejoin:round;stroke-width:.5}.st25{fill:#849e33}.st25,.st26,.st27,.st28{font-family:Calibri;font-size:1.00001em}.st26{fill:#0070c0}.st27{fill:#7030a0}.st28{fill:#000}.st29,.st30,.st31{fill:#4271c6;stroke:#fff;stroke-linecap:round;stroke-linejoin:round;stroke-width:.5}.st30,.st31{fill:#73ae42}.st31{visibility:hidden}.st32{fill:#fff;font-family:Calibri;font-size:.833336em}.st33{fill:none;fill-rule:evenodd;font-size:12px;overflow:visible;stroke-linecap:square;stroke-miterlimit:3}</style><defs id="Markers"><g id="lend4"><path style="stroke:none" d="M 2 1 L 0 0 L 2 -1 L 2 1"/></g><marker id="mrkr4-52" class="st7" markerUnits="strokeWidth" orient="auto" overflow="visible" refX="-14.96"><use transform="scale(-7.48,-7.48)" xlink:href="#lend4"/></marker><marker id="mrkr4-60" class="st11" markerUnits="strokeWidth" orient="auto" overflow="visible" refX="-3.728"><use transform="scale(-1.864,-1.864)" xlink:href="#lend4"/></marker><marker id="mrkr4-69" class="st14" markerUnits="strokeWidth" orient="auto" overflow="visible" refX="-14.96"><use transform="scale(-7.48,-7.48)" xlink:href="#lend4"/></marker><g id="lend3"><path style="stroke-linecap:round;stroke-linejoin:round;fill:none" d="M 2 1 L 0 0 L 2 -1"/></g><marker id="mrkr3-84" class="st7" markerUnits="strokeWidth" orient="auto" overflow="visible"><use transform="scale(-7.48,-7.48)" xlink:href="#lend3"/></marker><marker id="mrkr3-92" class="st18" markerUnits="strokeWidth" orient="auto" overflow="visible"><use transform="scale(-7.48,-7.48)" xlink:href="#lend3"/></marker><marker id="mrkr4-108" class="st18" markerUnits="strokeWidth" orient="auto" overflow="visible" refX="-14.96"><use transform="scale(-7.48,-7.48)" xlink:href="#lend4"/></marker><marker id="mrkr3-139" class="st23" markerUnits="strokeWidth" orient="auto" overflow="visible"><use transform="scale(-2.08,-2.08)" xlink:href="#lend3"/></marker></defs><g><title>Page-1</title><g id="group1-1" transform="translate(127.953,-450.675)"><title>Object lifeline</title><desc>Partner ACVP Proxy Server/App</desc><g id="shape2-2" transform="translate(0,-27)"><title>Sheet.2</title><rect width="54" height="25.2" x="0" y="508.525" class="st1"/></g><g id="shape3-4" transform="translate(18,-82.8)"><title>Sheet.3</title><path d="M9 533.72 a0 0 0 1 1 0 0 a0 0 0 1 1 0 0 Z" class="st1"/></g><g id="shape4-6" transform="translate(18,363.086)"><title>Sheet.4</title></g><g id="shape5-8" transform="translate(560.725,533.725) rotate(90)"><title>Sheet.5</title><path d="M0 533.72 L325.8 533.72" class="st2"/></g><g id="shape1-11"><rect width="54" height="79.2" x="0" y="454.525" class="st1"/><text x="8.26" y="468.93" class="st3">Partner<tspan x="13.45" class="st4" dy="1.2em">ACVP </tspan><tspan x="12.85" class="st4" dy="1.2em">Proxy </tspan><tspan x="8.44" class="st4" dy="1.2em">Server/</tspan><tspan x="16.92" class="st4" dy="1.2em">App</tspan></text></g></g><g id="group7-18" transform="translate(1.95271,-450.675)"><title>Actor lifeline</title><desc>Partner TOTP Server 192.168.xxx.xx</desc><g id="shape8-19" transform="translate(0,-13.5)"><title>Sheet.8</title><rect width="54" height="25.2" x="0" y="508.525" class="st1"/></g><g id="shape10-21" transform="translate(18,353.443)"><title>Sheet.10</title></g><g id="shape11-23" transform="translate(560.725,533.725) rotate(90)"><title>Sheet.11</title><path d="M0 533.72 L325.8 533.72" class="st2"/></g><g id="shape7-26"><rect width="54" height="52.2" x="0" y="481.525" class="st1"/><text x="8.26" y="489.62" class="st3">Partner <tspan x="13.81" class="st4" dy="1.2em">TOTP </tspan><tspan x="11.02" class="st4" dy="1.2em">Server</tspan><tspan x="8.58" class="st5" dy="2.4em">192.168.xxx.xx</tspan></text></g></g><g id="group12-32" transform="translate(253.953,-453.375)"><title>Object lifeline.12</title><desc>NIST ACVTS Server</desc><g id="shape13-33" transform="translate(0,-12.15)"><title>Sheet.13</title><rect width="54" height="25.2" x="0" y="508.525" class="st1"/></g><g id="shape14-35" transform="translate(18,-53.1)"><title>Sheet.14</title><path d="M9 533.72 a0 0 0 1 1 0 0 a0 0 0 1 1 0 0 Z" class="st1"/></g><g id="shape15-37" transform="translate(18,355.179)"><title>Sheet.15</title></g><g id="shape16-39" transform="translate(560.725,533.725) rotate(90)"><title>Sheet.16</title><path d="M0 533.72 L328.5 533.72" class="st2"/></g><g id="shape12-42"><rect width="54" height="49.5" x="0" y="484.225" class="st1"/><text x="15.64" y="498.18" class="st3">NIST <tspan x="10.83" class="st4" dy="1.2em">ACVTS </tspan><tspan x="11.02" class="st4" dy="1.2em">Server</tspan></text></g></g><g id="shape17-47" transform="translate(154.953,-431.438)"><title>Message</title><desc>Initiate a 2-way TLS session</desc><path d="M0 525.29 L118.52 524.23" class="st6"/><rect width="90.175" height="9.6" x="17.913" y="519.925" class="st8"/><text x="17.91" y="527.13" class="st9">Initiate a 2-way TLS session</text></g><g id="shape18-55" transform="translate(154.953,-291.375)"><title>Message.18</title><desc>HTTP POST OTP to /login</desc><path d="M0 524.72 L112.02 524.72" class="st10"/><rect width="59.57" height="19.2" x="33.215" y="515.125" class="st8"/><text x="33.22" y="522.33" class="st12">HTTP POST OTP to<tspan x="53.53" class="st4" dy="1.2em">/login</tspan></text></g><g id="shape19-64" transform="translate(271.953,-435.375)"><title>Self Message</title><desc>authenticate client certificate,</desc><path d="M9 533.72 L27 533.72 L27 565.22 L16.48 565.22" class="st13"/><rect width="97.841" height="9.6" x="-39.921" y="544.675" class="st8"/><text x="-39.92" y="551.88" class="st15">authenticate client certificate,</text></g><g id="shape24-72" transform="translate(19.9527,-378.675)"><title>Self Message.24</title><desc>compute TOTP</desc><path d="M9 533.72 L27 533.72 L27 558.93 L16.48 558.93" class="st13"/><rect width="48.093" height="9.6" x="-15.046" y="541.525" class="st8"/><text x="-15.05" y="548.73" class="st15">compute TOTP</text></g><g id="shape28-79" transform="translate(280.953,-387.675)"><title>Return Message.28</title><desc>OK</desc><path d="M0 524.72 L-126 524.72" class="st16"/><rect width="11.261" height="9.6" x="-68.631" y="519.925" class="st8"/><text x="-66.82" y="527.13" class="st9">OK</text></g><g id="shape34-87" transform="translate(370.953,-214.875)"><title>Return Message.34</title><desc>OK/fail</desc><path d="M0 524.72 L-90 524.72" class="st17"/><rect width="22.488" height="9.6" x="-56.244" y="519.925" class="st19"/><text x="-56.24" y="527.13" class="st20">OK/fail</text></g><g id="shape39-95" transform="translate(361.953,-277.875)"><title>Self Message.39</title><desc>verify OTP for client ID</desc><path d="M9 533.72 L27 533.72 L27 565.22 L16.48 565.22" class="st13"/><rect width="37.922" height="19.2" x="-9.961" y="539.875" class="st8"/><text x="-7.71" y="547.08" class="st15">verify OTP<tspan x="-9.96" class="st4" dy="1.2em">for client ID</tspan></text></g><g id="shape45-103" transform="translate(154.953,-376.875)"><title>Message.45</title><desc>request OTP</desc><path d="M0 524.72 L-118.52 524.72" class="st21"/><rect width="40.101" height="9.6" x="-83.05" y="519.925" class="st8"/><text x="-83.05" y="527.13" class="st20">request OTP</text></g><g id="group69-111" transform="translate(343.953,-453.375)"><title>Object lifeline.69</title><desc>NIST TOTP Server</desc><g id="shape70-112" transform="translate(0,-12.15)"><title>Sheet.70</title><rect width="54" height="25.2" x="0" y="508.525" class="st1"/></g><g id="shape71-114" transform="translate(18,-53.1)"><title>Sheet.71</title><path d="M9 533.72 a0 0 0 1 1 0 0 a0 0 0 1 1 0 0 Z" class="st1"/></g><g id="shape72-116" transform="translate(18,355.179)"><title>Sheet.72</title></g><g id="shape73-118" transform="translate(560.725,533.725) rotate(90)"><title>Sheet.73</title><path d="M0 533.72 L328.5 533.72" class="st2"/></g><g id="shape69-121"><rect width="54" height="49.5" x="0" y="484.225" class="st1"/><text x="15.64" y="498.18" class="st3">NIST <tspan x="13.81" class="st4" dy="1.2em">TOTP </tspan><tspan x="11.02" class="st4" dy="1.2em">Server</tspan></text></g></g><g id="shape74-126" transform="translate(280.953,-277.875)"><title>Message.74</title><desc>authenticate OTP/client ID</desc><path d="M0 524.72 L82.52 524.72" class="st21"/><rect width="43.081" height="19.2" x="23.459" y="515.125" class="st8"/><text x="24.25" y="522.33" class="st20">authenticate <tspan x="23.46" class="st4" dy="1.2em">OTP/client ID</tspan></text></g><g id="shape76-134" transform="translate(280.953,-214.425)"><title>Return Message.76</title><desc>Authorization JWT if OK 403 if fail</desc><path d="M0 542.28 L-126 543.17" class="st22"/><rect width="77.21" height="19.2" x="-101.605" y="533.125" class="st8"/><text x="-101.61" y="540.33" class="st12">Authorization JWT if OK<tspan x="-78" class="st4" dy="1.2em">403 if fail</tspan></text></g><g id="shape84-143" transform="translate(28.9527,-331.875)"><title>Return Message.84</title><desc>return OTP</desc><path d="M0 524.72 L126 524.72" class="st17"/><rect width="35.781" height="9.6" x="45.11" y="519.925" class="st8"/><text x="45.11" y="527.13" class="st20">return OTP</text></g><g id="shape85-150" transform="translate(19.9527,-70.125)"><title>Message.85</title><path d="M0 524.72 L112.02 524.72" class="st10"/></g><g id="shape86-155" transform="translate(18.4527,-89.4375)"><title>Message.86</title><path d="M0 525.29 L118.52 524.23" class="st6"/></g><g id="shape87-160" transform="translate(18.8277,-35.0625)"><title>Message.87</title><path d="M0 524.91 L121.15 524.56" class="st21"/></g><g id="shape88-165" transform="translate(157.203,-93.375)"><title>Sheet.88</title><desc>TCP/IP protocol exchange</desc><rect width="153" height="11.25" x="0" y="522.475" class="st24"/><text x="13.87" y="531.7" class="st25">TCP/IP protocol exchange</text></g><g id="shape89-168" transform="translate(157.203,-73.875)"><title>Sheet.89</title><desc>HTTPS protocol exchange</desc><rect width="153" height="11.25" x="0" y="522.475" class="st24"/><text x="14.57" y="531.7" class="st26">HTTPS protocol exchange</text></g><g id="shape90-171" transform="translate(155.703,-37.125)"><title>Sheet.90</title><desc>Some protocol exchange, each party selects to fit their IT in...</desc><rect width="153" height="11.25" x="0" y="522.475" class="st24"/><text x="14.82" y="517.3" class="st27">Some protocol exchange, <tspan x="6.73" class="st4" dy="1.2em">each party selects to fit their </tspan><tspan x="37" class="st4" dy="1.2em">IT infrastructure</tspan></text></g><g id="shape91-176" transform="translate(17.7027,0)"><title>Message.91</title><path d="M0 524.72 L122.27 524.72" class="st13"/></g><g id="shape92-181" transform="translate(157.953,-3.375)"><title>Sheet.92</title><desc>Internal processing</desc><rect width="118.5" height="11.25" x="0" y="522.475" class="st24"/><text x="12.76" y="531.7" class="st28">Internal processing</text></g><g id="group64-184" transform="translate(690.855,-121.68) rotate(33)"><title>Petal.64</title><desc>2-nd factor</desc><g id="group65-185" transform="translate(-24.525,1044.95) scale(1,-1)"><title>Sheet.65</title><g id="shape66-186"><title>Sheet.66</title><path d="M-7.2 537.32 L48.94 537.32 A21.8026 19.4666 -180 0 0 48.94 498.4 A116.056 65.4653 -75.74 0 0 -7.2 537.32 Z" class="st29"/></g><g id="shape67-188" transform="translate(-138.138,18.1862) rotate(-15)"><title>Sheet.67</title></g><g id="shape68-190" transform="translate(138.138,18.1862) rotate(15)"><title>Sheet.68</title></g><g id="shape65-192"><path d="M0 533.72 L48.94 533.72 A15.8513 14.1529 -180 0 0 48.94 505.6 A100.866 56.8969 -75.74 0 0 -0 533.72 Z" class="st30"/></g></g><g id="shape64-194"><rect width="36" height="22.5" x="0" y="511.225" class="st31"/><text x="8.68" y="519.48" class="st32">2-nd <tspan x="5.91" class="st4" dy="1.2em">factor</tspan></text></g></g><g id="group78-198" transform="translate(596.446,-278.601) rotate(33)"><title>Petal.78</title><desc>1-st factor</desc><g id="group79-199" transform="translate(-24.525,1044.95) scale(1,-1)"><title>Sheet.79</title><g id="shape80-200"><title>Sheet.80</title><path d="M-7.2 537.32 L48.94 537.32 A21.8026 19.4666 -180 0 0 48.94 498.4 A116.056 65.4653 -75.74 0 0 -7.2 537.32 Z" class="st29"/></g><g id="shape81-202" transform="translate(-138.138,18.1862) rotate(-15)"><title>Sheet.81</title></g><g id="shape82-204" transform="translate(138.138,18.1862) rotate(15)"><title>Sheet.82</title></g><g id="shape79-206"><path d="M0 533.72 L48.94 533.72 A15.8513 14.1529 -180 0 0 48.94 505.6 A100.866 56.8969 -75.74 0 0 -0 533.72 Z" class="st30"/></g></g><g id="shape78-208"><rect width="36" height="22.5" x="0" y="511.225" class="st31"/><text x="10.3" y="519.48" class="st32">1-st <tspan x="5.91" class="st4" dy="1.2em">factor</tspan></text></g></g></g></svg>