<svg xmlns="http://www.w3.org/2000/svg" xmlns:ev="http://www.w3.org/2001/xml-events" xmlns:xlink="http://www.w3.org/1999/xlink" width="720.333" height="414.043" class="st15" color-interpolation-filters="sRGB" viewBox="0 0 540.25 310.532" xml:space="preserve"><style type="text/css">.st1{stroke:#d49f00;stroke-linecap:butt;stroke-width:1.25}.st2{stroke-opacity:0}.st2,.st3{fill:url(#grad0-74);stroke:#888;stroke-linecap:butt;stroke-width:1.25}.st4{fill:#555;font-family:Franklin Gothic Book;font-size:.833336em}.st5{fill:#fff;stroke:#d49f00;stroke-linecap:butt;stroke-width:1.25}.st6{fill:#d49f00;font-family:Franklin Gothic Book;font-size:1.00001em;font-stretch:semi-expanded}.st7,.st8,.st9{stroke:#888;stroke-linecap:butt;stroke-width:1.25}.st8{fill:#fff}.st9{fill:#a5a5a5}.st10{fill:#fff}.st11{fill:#ffda6a}.st12{font-size:1em}.st13,.st14{stroke-linecap:butt;stroke-width:1.25}.st13{fill:url(#grad0-225);stroke:#888}.st14{stroke:#fff}.st15{fill:none;fill-rule:evenodd;font-size:12px;overflow:visible;stroke-linecap:square;stroke-miterlimit:3}</style><defs id="Patterns_And_Gradients"><linearGradient id="grad0-6" x1="0" x2="1" y1="0" y2="0" gradientTransform="rotate(90 0.5 0.5)"><stop offset=".02" stop-color="#fff0df" stop-opacity="1"/><stop offset=".34" stop-color="#ffe8cb" stop-opacity="1"/><stop offset=".96" stop-color="#ffd28b" stop-opacity="1"/></linearGradient><linearGradient id="grad0-74" x1="0" x2="1" y1="0" y2="0" gradientTransform="rotate(90 0.5 0.5)"><stop offset=".02" stop-color="#ebebeb" stop-opacity="1"/><stop offset=".34" stop-color="#e0e0e0" stop-opacity="1"/><stop offset=".96" stop-color="#c1c1c1" stop-opacity="1"/></linearGradient><linearGradient id="grad0-167" x1="0" x2="1" y1="0" y2="0" gradientTransform="rotate(90 0.5 0.5)"><stop offset=".01" stop-color="#fff" stop-opacity="1"/><stop offset=".5" stop-color="#fefefe" stop-opacity="1"/><stop offset="1" stop-color="#fff" stop-opacity="1"/></linearGradient><linearGradient id="grad0-171" x1="0" x2="1" y1="0" y2="0" gradientTransform="rotate(270 0.5 0.5)"><stop offset="0" stop-color="#fefefe" stop-opacity="1"/><stop offset="1" stop-color="#fff" stop-opacity="1"/></linearGradient><linearGradient id="grad0-225" x1="0" x2="1" y1="0" y2="0" gradientTransform="rotate(270 0.5 0.5)"><stop offset="0" stop-color="#18536f" stop-opacity="1"/><stop offset=".48" stop-color="#2681ae" stop-opacity="1"/><stop offset="1" stop-color="#68b7dd" stop-opacity="1"/></linearGradient></defs><g><title>Page-1</title><g id="group16-1" transform="translate(1.25,-291.282)"><title>Ethernet</title><desc>https://*.partners.extranet...</desc><g id="group17-2"><title>Sheet.17</title><g id="shape17-3"><path d="M72.31 301.53 L144.62 301.53" class="st1"/><path d="M72.31 301.53 L144.62 301.53" class="st1"/><path d="M216 301.53 L144.62 301.53" class="st1"/><path d="M72.31 301.53 L144.62 301.53" class="st1"/><path d="M216.93 301.53 L144.62 301.53" class="st1"/><path d="M90 391.53 L90 301.53 L144.62 301.53" class="st1"/><path d="M216.93 301.53 L144.62 301.53" class="st1"/><path d="M72.31 301.53 L144.62 301.53" class="st1"/><path d="M216.93 301.53 L144.62 301.53" class="st1"/><path d="M72.31 301.53 L144.62 301.53" class="st1"/><path d="M216.93 301.53 L144.62 301.53" class="st1"/><path d="M72.31 301.53 L144.62 301.53" class="st1"/><path d="M216.93 301.53 L144.62 301.53" class="st1"/><path d="M72.31 301.53 L144.62 301.53" class="st1"/><path d="M216.93 301.53 L144.62 301.53" class="st1"/><path d="M72.31 301.53 L144.62 301.53" class="st1"/><path d="M216.93 301.53 L144.62 301.53" class="st1"/><path d="M72.31 301.53 L144.62 301.53" class="st1"/><path d="M216.93 301.53 L144.62 301.53" class="st1"/><path d="M72.31 301.53 L144.62 301.53" class="st1"/><path d="M216.93 301.53 L144.62 301.53" class="st1"/><path d="M72.31 301.53 L144.62 301.53" class="st1"/><path d="M216.93 301.53 L144.62 301.53" class="st1"/><path d="M72.31 301.53 L144.62 301.53" class="st1"/><path d="M216.93 301.53 L144.62 301.53" class="st1"/><path d="M72.31 301.53 L144.62 301.53" class="st1"/><path d="M216.93 301.53 L144.62 301.53" class="st1"/><path d="M72.31 301.53 L144.62 301.53" class="st1"/><path d="M216.93 301.53 L144.62 301.53" class="st1"/><path d="M72.31 301.53 L144.62 301.53" class="st1"/><path d="M216.93 301.53 L144.62 301.53" class="st1"/><path d="M72.31 301.53 L144.62 301.53" class="st1"/><path d="M216.93 301.53 L144.62 301.53" class="st1"/><path d="M72.31 301.53 L144.62 301.53" class="st1"/><path d="M216.93 301.53 L144.62 301.53" class="st1"/><path d="M72.31 301.53 L144.62 301.53" class="st1"/><path d="M216.93 301.53 L144.62 301.53" class="st1"/><path d="M72.31 301.53 L144.62 301.53" class="st1"/><path d="M216.93 301.53 L144.62 301.53" class="st1"/><path d="M72.31 301.53 L144.62 301.53" class="st1"/><path d="M216.93 301.53 L144.62 301.53" class="st1"/><path d="M72.31 301.53 L144.62 301.53" class="st1"/><path d="M216.93 301.53 L144.62 301.53" class="st1"/><path d="M72.31 301.53 L144.62 301.53" class="st1"/><path d="M216.93 301.53 L144.62 301.53" class="st1"/><path d="M72.31 301.53 L144.62 301.53" class="st1"/><path d="M216.93 301.53 L144.62 301.53" class="st1"/><path d="M72.31 301.53 L144.62 301.53" class="st1"/><path d="M216.93 301.53 L144.62 301.53" class="st1"/><path d="M72.31 301.53 L144.62 301.53" class="st1"/><path d="M216.93 301.53 L144.62 301.53" class="st1"/><path d="M72.31 301.53 L144.62 301.53" class="st1"/><path d="M216.93 301.53 L144.62 301.53" class="st1"/><path d="M72.31 301.53 L144.62 301.53" class="st1"/><path d="M216.93 301.53 L144.62 301.53" class="st1"/><path d="M72.31 301.53 L144.62 301.53" class="st1"/><path d="M216.93 301.53 L144.62 301.53" class="st1"/><path d="M72.31 301.53 L144.62 301.53" class="st1"/><path d="M216.93 301.53 L144.62 301.53" class="st1"/><path d="M72.31 301.53 L144.62 301.53" class="st1"/><path d="M216.93 301.53 L144.62 301.53" class="st1"/><path d="M72.31 301.53 L144.62 301.53" class="st1"/><path d="M216.93 301.53 L144.62 301.53" class="st1"/><path d="M72.31 301.53 L144.62 301.53" class="st1"/></g></g><g id="shape18-71"><title>Sheet.18</title><path d="M75.91 301.53 A3.6 3.6 -180 1 0 68.71 301.53 A3.6 3.6 -180 1 0 75.91 301.53 ZM75.91 301.53 A3.6 3.6 -180 1 0 68.71 301.53 A3.6 3.6 -180 1 0 75.91 301.53 ZM219.6 301.53 A3.6 3.6 -180 1 0 212.4 301.53 A3.6 3.6 -180 1 0 219.6 301.53 ZM75.91 301.53 A3.6 3.6 -180 1 0 68.71 301.53 A3.6 3.6 -180 1 0 75.91 301.53 ZM220.53 301.53 A3.6 3.6 -180 1 0 213.33 301.53 A3.6 3.6 -180 1 0 220.53 301.53 ZM93.6 391.53 A3.6 3.6 -180 1 0 86.4 391.53 A3.6 3.6 -180 1 0 93.6 391.53 ZM220.53 301.53 A3.6 3.6 -180 1 0 213.33 301.53 A3.6 3.6 -180 1 0 220.53 301.53 ZM75.91 301.53 A3.6 3.6 -180 1 0 68.71 301.53 A3.6 3.6 -180 1 0 75.91 301.53 ZM220.53 301.53 A3.6 3.6 -180 1 0 213.33 301.53 A3.6 3.6 -180 1 0 220.53 301.53 ZM75.91 301.53 A3.6 3.6 -180 1 0 68.71 301.53 A3.6 3.6 -180 1 0 75.91 301.53 ZM220.53 301.53 A3.6 3.6 -180 1 0 213.33 301.53 A3.6 3.6 -180 1 0 220.53 301.53 ZM75.91 301.53 A3.6 3.6 -180 1 0 68.71 301.53 A3.6 3.6 -180 1 0 75.91 301.53 ZM220.53 301.53 A3.6 3.6 -180 1 0 213.33 301.53 A3.6 3.6 -180 1 0 220.53 301.53 ZM75.91 301.53 A3.6 3.6 -180 1 0 68.71 301.53 A3.6 3.6 -180 1 0 75.91 301.53 ZM220.53 301.53 A3.6 3.6 -180 1 0 213.33 301.53 A3.6 3.6 -180 1 0 220.53 301.53 ZM75.91 301.53 A3.6 3.6 -180 1 0 68.71 301.53 A3.6 3.6 -180 1 0 75.91 301.53 ZM220.53 301.53 A3.6 3.6 -180 1 0 213.33 301.53 A3.6 3.6 -180 1 0 220.53 301.53 ZM75.91 301.53 A3.6 3.6 -180 1 0 68.71 301.53 A3.6 3.6 -180 1 0 75.91 301.53 ZM220.53 301.53 A3.6 3.6 -180 1 0 213.33 301.53 A3.6 3.6 -180 1 0 220.53 301.53 ZM75.91 301.53 A3.6 3.6 -180 1 0 68.71 301.53 A3.6 3.6 -180 1 0 75.91 301.53 ZM220.53 301.53 A3.6 3.6 -180 1 0 213.33 301.53 A3.6 3.6 -180 1 0 220.53 301.53 ZM75.91 301.53 A3.6 3.6 -180 1 0 68.71 301.53 A3.6 3.6 -180 1 0 75.91 301.53 ZM220.53 301.53 A3.6 3.6 -180 1 0 213.33 301.53 A3.6 3.6 -180 1 0 220.53 301.53 ZM75.91 301.53 A3.6 3.6 -180 1 0 68.71 301.53 A3.6 3.6 -180 1 0 75.91 301.53 ZM220.53 301.53 A3.6 3.6 -180 1 0 213.33 301.53 A3.6 3.6 -180 1 0 220.53 301.53 ZM75.91 301.53 A3.6 3.6 -180 1 0 68.71 301.53 A3.6 3.6 -180 1 0 75.91 301.53 ZM220.53 301.53 A3.6 3.6 -180 1 0 213.33 301.53 A3.6 3.6 -180 1 0 220.53 301.53 ZM75.91 301.53 A3.6 3.6 -180 1 0 68.71 301.53 A3.6 3.6 -180 1 0 75.91 301.53 ZM220.53 301.53 A3.6 3.6 -180 1 0 213.33 301.53 A3.6 3.6 -180 1 0 220.53 301.53 ZM75.91 301.53 A3.6 3.6 -180 1 0 68.71 301.53 A3.6 3.6 -180 1 0 75.91 301.53 ZM220.53 301.53 A3.6 3.6 -180 1 0 213.33 301.53 A3.6 3.6 -180 1 0 220.53 301.53 ZM75.91 301.53 A3.6 3.6 -180 1 0 68.71 301.53 A3.6 3.6 -180 1 0 75.91 301.53 ZM220.53 301.53 A3.6 3.6 -180 1 0 213.33 301.53 A3.6 3.6 -180 1 0 220.53 301.53 ZM75.91 301.53 A3.6 3.6 -180 1 0 68.71 301.53 A3.6 3.6 -180 1 0 75.91 301.53 ZM220.53 301.53 A3.6 3.6 -180 1 0 213.33 301.53 A3.6 3.6 -180 1 0 220.53 301.53 ZM75.91 301.53 A3.6 3.6 -180 1 0 68.71 301.53 A3.6 3.6 -180 1 0 75.91 301.53 ZM220.53 301.53 A3.6 3.6 -180 1 0 213.33 301.53 A3.6 3.6 -180 1 0 220.53 301.53 ZM75.91 301.53 A3.6 3.6 -180 1 0 68.71 301.53 A3.6 3.6 -180 1 0 75.91 301.53 ZM220.53 301.53 A3.6 3.6 -180 1 0 213.33 301.53 A3.6 3.6 -180 1 0 220.53 301.53 ZM75.91 301.53 A3.6 3.6 -180 1 0 68.71 301.53 A3.6 3.6 -180 1 0 75.91 301.53 ZM220.53 301.53 A3.6 3.6 -180 1 0 213.33 301.53 A3.6 3.6 -180 1 0 220.53 301.53 ZM75.91 301.53 A3.6 3.6 -180 1 0 68.71 301.53 A3.6 3.6 -180 1 0 75.91 301.53 ZM220.53 301.53 A3.6 3.6 -180 1 0 213.33 301.53 A3.6 3.6 -180 1 0 220.53 301.53 ZM75.91 301.53 A3.6 3.6 -180 1 0 68.71 301.53 A3.6 3.6 -180 1 0 75.91 301.53 ZM220.53 301.53 A3.6 3.6 -180 1 0 213.33 301.53 A3.6 3.6 -180 1 0 220.53 301.53 ZM75.91 301.53 A3.6 3.6 -180 1 0 68.71 301.53 A3.6 3.6 -180 1 0 75.91 301.53 ZM220.53 301.53 A3.6 3.6 -180 1 0 213.33 301.53 A3.6 3.6 -180 1 0 220.53 301.53 ZM75.91 301.53 A3.6 3.6 -180 1 0 68.71 301.53 A3.6 3.6 -180 1 0 75.91 301.53 ZM220.53 301.53 A3.6 3.6 -180 1 0 213.33 301.53 A3.6 3.6 -180 1 0 220.53 301.53 ZM75.91 301.53 A3.6 3.6 -180 1 0 68.71 301.53 A3.6 3.6 -180 1 0 75.91 301.53 ZM220.53 301.53 A3.6 3.6 -180 1 0 213.33 301.53 A3.6 3.6 -180 1 0 220.53 301.53 ZM75.91 301.53 A3.6 3.6 -180 1 0 68.71 301.53 A3.6 3.6 -180 1 0 75.91 301.53 ZM220.53 301.53 A3.6 3.6 -180 1 0 213.33 301.53 A3.6 3.6 -180 1 0 220.53 301.53 ZM75.91 301.53 A3.6 3.6 -180 1 0 68.71 301.53 A3.6 3.6 -180 1 0 75.91 301.53 ZM220.53 301.53 A3.6 3.6 -180 1 0 213.33 301.53 A3.6 3.6 -180 1 0 220.53 301.53 ZM75.91 301.53 A3.6 3.6 -180 1 0 68.71 301.53 A3.6 3.6 -180 1 0 75.91 301.53 ZM220.53 301.53 A3.6 3.6 -180 1 0 213.33 301.53 A3.6 3.6 -180 1 0 220.53 301.53 ZM75.91 301.53 A3.6 3.6 -180 1 0 68.71 301.53 A3.6 3.6 -180 1 0 75.91 301.53 ZM220.53 301.53 A3.6 3.6 -180 1 0 213.33 301.53 A3.6 3.6 -180 1 0 220.53 301.53 ZM75.91 301.53 A3.6 3.6 -180 1 0 68.71 301.53 A3.6 3.6 -180 1 0 75.91 301.53 ZM220.53 301.53 A3.6 3.6 -180 1 0 213.33 301.53 A3.6 3.6 -180 1 0 220.53 301.53 ZM75.91 301.53 A3.6 3.6 -180 1 0 68.71 301.53 A3.6 3.6 -180 1 0 75.91 301.53 ZM220.53 301.53 A3.6 3.6 -180 1 0 213.33 301.53 A3.6 3.6 -180 1 0 220.53 301.53 ZM75.91 301.53 A3.6 3.6 -180 1 0 68.71 301.53 A3.6 3.6 -180 1 0 75.91 301.53 Z" class="st2"/></g><g id="shape19-75"><title>Sheet.19</title><rect width="289.234" height="18" x="0" y="292.532" class="st3"/></g><g id="shape16-78"><text x="83.69" y="304.53" class="st4">https://*.partners.extranet...</text></g></g><g id="group24-80" transform="translate(3.95,-1.25)"><title>Ethernet.328</title><desc>Intranet 192.168.xxx.xxx</desc><g id="group25-81"><title>Sheet.25</title><g id="shape25-82"><path d="M84.36 156.63 L84.36 301.53 L267.53 301.53" class="st1"/><path d="M133.76 301.53 L267.53 301.53" class="st1"/><path d="M133.76 301.53 L267.53 301.53" class="st1"/><path d="M283.4 156.63 L283.4 301.53 L267.53 301.53" class="st1"/><path d="M426.05 156.63 L426.05 301.53 L267.53 301.53" class="st1"/><path d="M133.76 301.53 L267.53 301.53" class="st1"/><path d="M401.29 301.53 L267.53 301.53" class="st1"/><path d="M133.76 301.53 L267.53 301.53" class="st1"/><path d="M401.29 301.53 L267.53 301.53" class="st1"/><path d="M133.76 301.53 L267.53 301.53" class="st1"/><path d="M401.29 301.53 L267.53 301.53" class="st1"/><path d="M133.76 301.53 L267.53 301.53" class="st1"/><path d="M401.29 301.53 L267.53 301.53" class="st1"/><path d="M133.76 301.53 L267.53 301.53" class="st1"/><path d="M401.29 301.53 L267.53 301.53" class="st1"/><path d="M133.76 301.53 L267.53 301.53" class="st1"/><path d="M401.29 301.53 L267.53 301.53" class="st1"/><path d="M133.76 301.53 L267.53 301.53" class="st1"/><path d="M401.29 301.53 L267.53 301.53" class="st1"/><path d="M133.76 301.53 L267.53 301.53" class="st1"/><path d="M401.29 301.53 L267.53 301.53" class="st1"/><path d="M133.76 301.53 L267.53 301.53" class="st1"/><path d="M401.29 301.53 L267.53 301.53" class="st1"/><path d="M133.76 301.53 L267.53 301.53" class="st1"/><path d="M401.29 301.53 L267.53 301.53" class="st1"/><path d="M133.76 301.53 L267.53 301.53" class="st1"/><path d="M401.29 301.53 L267.53 301.53" class="st1"/><path d="M133.76 301.53 L267.53 301.53" class="st1"/><path d="M401.29 301.53 L267.53 301.53" class="st1"/><path d="M133.76 301.53 L267.53 301.53" class="st1"/><path d="M401.29 301.53 L267.53 301.53" class="st1"/><path d="M133.76 301.53 L267.53 301.53" class="st1"/><path d="M401.29 301.53 L267.53 301.53" class="st1"/><path d="M133.76 301.53 L267.53 301.53" class="st1"/><path d="M401.29 301.53 L267.53 301.53" class="st1"/><path d="M133.76 301.53 L267.53 301.53" class="st1"/><path d="M401.29 301.53 L267.53 301.53" class="st1"/><path d="M133.76 301.53 L267.53 301.53" class="st1"/><path d="M401.29 301.53 L267.53 301.53" class="st1"/><path d="M133.76 301.53 L267.53 301.53" class="st1"/><path d="M401.29 301.53 L267.53 301.53" class="st1"/><path d="M133.76 301.53 L267.53 301.53" class="st1"/><path d="M401.29 301.53 L267.53 301.53" class="st1"/><path d="M133.76 301.53 L267.53 301.53" class="st1"/><path d="M401.29 301.53 L267.53 301.53" class="st1"/><path d="M133.76 301.53 L267.53 301.53" class="st1"/><path d="M401.29 301.53 L267.53 301.53" class="st1"/><path d="M133.76 301.53 L267.53 301.53" class="st1"/><path d="M401.29 301.53 L267.53 301.53" class="st1"/><path d="M133.76 301.53 L267.53 301.53" class="st1"/><path d="M401.29 301.53 L267.53 301.53" class="st1"/><path d="M133.76 301.53 L267.53 301.53" class="st1"/><path d="M401.29 301.53 L267.53 301.53" class="st1"/><path d="M133.76 301.53 L267.53 301.53" class="st1"/><path d="M401.29 301.53 L267.53 301.53" class="st1"/><path d="M133.76 301.53 L267.53 301.53" class="st1"/><path d="M401.29 301.53 L267.53 301.53" class="st1"/><path d="M133.76 301.53 L267.53 301.53" class="st1"/><path d="M401.29 301.53 L267.53 301.53" class="st1"/><path d="M133.76 301.53 L267.53 301.53" class="st1"/><path d="M401.29 301.53 L267.53 301.53" class="st1"/><path d="M133.76 301.53 L267.53 301.53" class="st1"/><path d="M401.29 301.53 L267.53 301.53" class="st1"/><path d="M133.76 301.53 L267.53 301.53" class="st1"/></g></g><g id="shape26-149"><title>Sheet.26</title><path d="M87.96 156.63 A3.6 3.6 -180 1 0 80.76 156.63 A3.6 3.6 -180 1 0 87.96 156.63 ZM137.36 301.53 A3.6 3.6 -180 1 0 130.16 301.53 A3.6 3.6 -180 1 0 137.36 301.53 ZM137.36 301.53 A3.6 3.6 -180 1 0 130.16 301.53 A3.6 3.6 -180 1 0 137.36 301.53 ZM287 156.63 A3.6 3.6 -180 1 0 279.8 156.63 A3.6 3.6 -180 1 0 287 156.63 ZM429.65 156.63 A3.6 3.6 -180 1 0 422.45 156.63 A3.6 3.6 -180 1 0 429.65 156.63 ZM137.36 301.53 A3.6 3.6 -180 1 0 130.16 301.53 A3.6 3.6 -180 1 0 137.36 301.53 ZM404.89 301.53 A3.6 3.6 -180 1 0 397.69 301.53 A3.6 3.6 -180 1 0 404.89 301.53 ZM137.36 301.53 A3.6 3.6 -180 1 0 130.16 301.53 A3.6 3.6 -180 1 0 137.36 301.53 ZM404.89 301.53 A3.6 3.6 -180 1 0 397.69 301.53 A3.6 3.6 -180 1 0 404.89 301.53 ZM137.36 301.53 A3.6 3.6 -180 1 0 130.16 301.53 A3.6 3.6 -180 1 0 137.36 301.53 ZM404.89 301.53 A3.6 3.6 -180 1 0 397.69 301.53 A3.6 3.6 -180 1 0 404.89 301.53 ZM137.36 301.53 A3.6 3.6 -180 1 0 130.16 301.53 A3.6 3.6 -180 1 0 137.36 301.53 ZM404.89 301.53 A3.6 3.6 -180 1 0 397.69 301.53 A3.6 3.6 -180 1 0 404.89 301.53 ZM137.36 301.53 A3.6 3.6 -180 1 0 130.16 301.53 A3.6 3.6 -180 1 0 137.36 301.53 ZM404.89 301.53 A3.6 3.6 -180 1 0 397.69 301.53 A3.6 3.6 -180 1 0 404.89 301.53 ZM137.36 301.53 A3.6 3.6 -180 1 0 130.16 301.53 A3.6 3.6 -180 1 0 137.36 301.53 ZM404.89 301.53 A3.6 3.6 -180 1 0 397.69 301.53 A3.6 3.6 -180 1 0 404.89 301.53 ZM137.36 301.53 A3.6 3.6 -180 1 0 130.16 301.53 A3.6 3.6 -180 1 0 137.36 301.53 ZM404.89 301.53 A3.6 3.6 -180 1 0 397.69 301.53 A3.6 3.6 -180 1 0 404.89 301.53 ZM137.36 301.53 A3.6 3.6 -180 1 0 130.16 301.53 A3.6 3.6 -180 1 0 137.36 301.53 ZM404.89 301.53 A3.6 3.6 -180 1 0 397.69 301.53 A3.6 3.6 -180 1 0 404.89 301.53 ZM137.36 301.53 A3.6 3.6 -180 1 0 130.16 301.53 A3.6 3.6 -180 1 0 137.36 301.53 ZM404.89 301.53 A3.6 3.6 -180 1 0 397.69 301.53 A3.6 3.6 -180 1 0 404.89 301.53 ZM137.36 301.53 A3.6 3.6 -180 1 0 130.16 301.53 A3.6 3.6 -180 1 0 137.36 301.53 ZM404.89 301.53 A3.6 3.6 -180 1 0 397.69 301.53 A3.6 3.6 -180 1 0 404.89 301.53 ZM137.36 301.53 A3.6 3.6 -180 1 0 130.16 301.53 A3.6 3.6 -180 1 0 137.36 301.53 ZM404.89 301.53 A3.6 3.6 -180 1 0 397.69 301.53 A3.6 3.6 -180 1 0 404.89 301.53 ZM137.36 301.53 A3.6 3.6 -180 1 0 130.16 301.53 A3.6 3.6 -180 1 0 137.36 301.53 ZM404.89 301.53 A3.6 3.6 -180 1 0 397.69 301.53 A3.6 3.6 -180 1 0 404.89 301.53 ZM137.36 301.53 A3.6 3.6 -180 1 0 130.16 301.53 A3.6 3.6 -180 1 0 137.36 301.53 ZM404.89 301.53 A3.6 3.6 -180 1 0 397.69 301.53 A3.6 3.6 -180 1 0 404.89 301.53 ZM137.36 301.53 A3.6 3.6 -180 1 0 130.16 301.53 A3.6 3.6 -180 1 0 137.36 301.53 ZM404.89 301.53 A3.6 3.6 -180 1 0 397.69 301.53 A3.6 3.6 -180 1 0 404.89 301.53 ZM137.36 301.53 A3.6 3.6 -180 1 0 130.16 301.53 A3.6 3.6 -180 1 0 137.36 301.53 ZM404.89 301.53 A3.6 3.6 -180 1 0 397.69 301.53 A3.6 3.6 -180 1 0 404.89 301.53 ZM137.36 301.53 A3.6 3.6 -180 1 0 130.16 301.53 A3.6 3.6 -180 1 0 137.36 301.53 ZM404.89 301.53 A3.6 3.6 -180 1 0 397.69 301.53 A3.6 3.6 -180 1 0 404.89 301.53 ZM137.36 301.53 A3.6 3.6 -180 1 0 130.16 301.53 A3.6 3.6 -180 1 0 137.36 301.53 ZM404.89 301.53 A3.6 3.6 -180 1 0 397.69 301.53 A3.6 3.6 -180 1 0 404.89 301.53 ZM137.36 301.53 A3.6 3.6 -180 1 0 130.16 301.53 A3.6 3.6 -180 1 0 137.36 301.53 ZM404.89 301.53 A3.6 3.6 -180 1 0 397.69 301.53 A3.6 3.6 -180 1 0 404.89 301.53 ZM137.36 301.53 A3.6 3.6 -180 1 0 130.16 301.53 A3.6 3.6 -180 1 0 137.36 301.53 ZM404.89 301.53 A3.6 3.6 -180 1 0 397.69 301.53 A3.6 3.6 -180 1 0 404.89 301.53 ZM137.36 301.53 A3.6 3.6 -180 1 0 130.16 301.53 A3.6 3.6 -180 1 0 137.36 301.53 ZM404.89 301.53 A3.6 3.6 -180 1 0 397.69 301.53 A3.6 3.6 -180 1 0 404.89 301.53 ZM137.36 301.53 A3.6 3.6 -180 1 0 130.16 301.53 A3.6 3.6 -180 1 0 137.36 301.53 ZM404.89 301.53 A3.6 3.6 -180 1 0 397.69 301.53 A3.6 3.6 -180 1 0 404.89 301.53 ZM137.36 301.53 A3.6 3.6 -180 1 0 130.16 301.53 A3.6 3.6 -180 1 0 137.36 301.53 ZM404.89 301.53 A3.6 3.6 -180 1 0 397.69 301.53 A3.6 3.6 -180 1 0 404.89 301.53 ZM137.36 301.53 A3.6 3.6 -180 1 0 130.16 301.53 A3.6 3.6 -180 1 0 137.36 301.53 ZM404.89 301.53 A3.6 3.6 -180 1 0 397.69 301.53 A3.6 3.6 -180 1 0 404.89 301.53 ZM137.36 301.53 A3.6 3.6 -180 1 0 130.16 301.53 A3.6 3.6 -180 1 0 137.36 301.53 ZM404.89 301.53 A3.6 3.6 -180 1 0 397.69 301.53 A3.6 3.6 -180 1 0 404.89 301.53 ZM137.36 301.53 A3.6 3.6 -180 1 0 130.16 301.53 A3.6 3.6 -180 1 0 137.36 301.53 ZM404.89 301.53 A3.6 3.6 -180 1 0 397.69 301.53 A3.6 3.6 -180 1 0 404.89 301.53 ZM137.36 301.53 A3.6 3.6 -180 1 0 130.16 301.53 A3.6 3.6 -180 1 0 137.36 301.53 ZM404.89 301.53 A3.6 3.6 -180 1 0 397.69 301.53 A3.6 3.6 -180 1 0 404.89 301.53 ZM137.36 301.53 A3.6 3.6 -180 1 0 130.16 301.53 A3.6 3.6 -180 1 0 137.36 301.53 ZM404.89 301.53 A3.6 3.6 -180 1 0 397.69 301.53 A3.6 3.6 -180 1 0 404.89 301.53 ZM137.36 301.53 A3.6 3.6 -180 1 0 130.16 301.53 A3.6 3.6 -180 1 0 137.36 301.53 ZM404.89 301.53 A3.6 3.6 -180 1 0 397.69 301.53 A3.6 3.6 -180 1 0 404.89 301.53 ZM137.36 301.53 A3.6 3.6 -180 1 0 130.16 301.53 A3.6 3.6 -180 1 0 137.36 301.53 ZM404.89 301.53 A3.6 3.6 -180 1 0 397.69 301.53 A3.6 3.6 -180 1 0 404.89 301.53 ZM137.36 301.53 A3.6 3.6 -180 1 0 130.16 301.53 A3.6 3.6 -180 1 0 137.36 301.53 Z" class="st2"/></g><g id="shape27-152"><title>Sheet.27</title><rect width="535.05" height="18" x="0" y="292.532" class="st3"/></g><g id="shape24-155"><text x="215.58" y="304.53" class="st4">Intranet 192.168.xxx.xxx</text></g></g><g id="group57-157" transform="translate(202.75,-64.2518)"><title>Plain.153</title><g id="group58-158"><title>Sheet.58</title><g id="shape59-159" transform="translate(2.88,2.88)"><title>Sheet.59</title></g><g id="shape58-161"><path d="M0 310.53 L151.25 310.53 L302.5 310.53 L302.5 152.13 L151.25 152.13 L0 152.13 L0 310.53 Z" class="st5"/></g></g><g id="group60-163" transform="translate(0,-135.9)"><title>Sheet.60</title><desc>Partner Application Servers</desc><g id="shape61-164"><title>Sheet.61</title></g><g id="shape60-168"><text x="6" y="302.88" class="st6">Partner Application Servers</text></g></g></g><g id="group75-173" transform="translate(251.35,-119.152)"><title>Application server</title><desc>ACVP Proxy server 192.168.xxx.xxx</desc><g id="shape76-174" transform="translate(22.5,-23.625)"><title>Sheet.76</title><path d="M0 310.53 L30.36 310.53" class="st7"/></g><g id="shape77-178" transform="translate(0,-8.95746)"><title>Sheet.77</title><path d="M0 288.78 L46.06 288.78 L46.06 256.45 L0 256.45 L0 288.78 ZM52.86 310.53 L72 310.53 L72 280.54 L52.86 280.54 L52.86 310.53 Z" class="st8"/></g><g id="shape78-180" transform="translate(0,-13.873)"><title>Sheet.78</title><path d="M0 267.4 L46.07 267.4 L46.07 261.36 L0 261.36 L0 267.4 ZM60.23 310.53 L69.57 310.53 L69.57 309.78 L60.23 309.78 L60.23 310.53 ZM60.23 308.26 L69.57 308.26 L69.57 307.51 L60.23 307.51 L60.23 308.26 ZM60.23 305.99 L69.57 305.99 L69.57 305.23 L60.23 305.23 L60.23 305.99 ZM69.38 301.49 A1.15739 1.15739 -180 1 0 67.06 301.49 A1.15739 1.15739 -180 1 0 69.38 301.49 Z" class="st9"/></g><g id="shape79-182" transform="translate(41.9217,-58.572)"><title>Sheet.79</title><path d="M1.45 308.72 L0.37 307.63 L0 308 L1.08 309.08 L0 310.17 L0.37 310.53 L1.45 309.45 L2.53 310.53 L2.9 310.17 L1.82 309.08 L2.9 308 L2.53 307.63 L1.45 308.72 Z" class="st10"/></g><g id="shape80-185" transform="translate(5.54378,-35.2265)"><title>Sheet.80</title><path d="M0 310.53 L9.19 310.53 L9.19 305.88 L0 305.88 L0 310.53 ZM0.12 302.76 L9.3 302.76 L9.3 292.64 L0.12 292.64 L0.12 302.76 ZM11.44 310.53 L34.35 310.53 L34.35 305.88 L11.44 305.88 L11.44 310.53 Z" class="st11"/><path d="M0 310.53 L9.19 310.53 L9.19 305.88 L0 305.88 L0 310.53" class="st1"/><path d="M0.12 302.76 L9.3 302.76 L9.3 292.64 L0.12 292.64 L0.12 302.76" class="st1"/><path d="M11.44 310.53 L34.35 310.53 L34.35 305.88 L11.44 305.88 L11.44 310.53" class="st1"/><path d="M12.13 299.27 L34.77 299.27" class="st1"/><path d="M12.13 296.48 L34.77 296.48" class="st1"/><path d="M12.13 293.69 L34.77 293.69" class="st1"/><path d="M12.13 302.06 L22.04 302.06" class="st1"/></g><g id="shape75-194"><text x="-1.86" y="323.53" class="st4">ACVP Proxy server <tspan x="1.94" class="st12" dy="1.2em">192.168.xxx.xxx</tspan></text></g></g><g id="group81-197" transform="translate(394,-119.152)"><title>Application server.170</title><desc>TOTP server 192.168.xxx.xxx</desc><g id="shape82-198" transform="translate(22.5,-23.625)"><title>Sheet.82</title><path d="M0 310.53 L30.36 310.53" class="st7"/></g><g id="shape83-202" transform="translate(0,-8.95746)"><title>Sheet.83</title><path d="M0 288.78 L46.06 288.78 L46.06 256.45 L0 256.45 L0 288.78 ZM52.86 310.53 L72 310.53 L72 280.54 L52.86 280.54 L52.86 310.53 Z" class="st8"/></g><g id="shape84-204" transform="translate(0,-13.873)"><title>Sheet.84</title><path d="M0 267.4 L46.07 267.4 L46.07 261.36 L0 261.36 L0 267.4 ZM60.23 310.53 L69.57 310.53 L69.57 309.78 L60.23 309.78 L60.23 310.53 ZM60.23 308.26 L69.57 308.26 L69.57 307.51 L60.23 307.51 L60.23 308.26 ZM60.23 305.99 L69.57 305.99 L69.57 305.23 L60.23 305.23 L60.23 305.99 ZM69.38 301.49 A1.15739 1.15739 -180 1 0 67.06 301.49 A1.15739 1.15739 -180 1 0 69.38 301.49 Z" class="st9"/></g><g id="shape85-206" transform="translate(41.9217,-58.572)"><title>Sheet.85</title><path d="M1.45 308.72 L0.37 307.63 L0 308 L1.08 309.08 L0 310.17 L0.37 310.53 L1.45 309.45 L2.53 310.53 L2.9 310.17 L1.82 309.08 L2.9 308 L2.53 307.63 L1.45 308.72 Z" class="st10"/></g><g id="shape86-209" transform="translate(5.54378,-35.2265)"><title>Sheet.86</title><path d="M0 310.53 L9.19 310.53 L9.19 305.88 L0 305.88 L0 310.53 ZM0.12 302.76 L9.3 302.76 L9.3 292.64 L0.12 292.64 L0.12 302.76 ZM11.44 310.53 L34.35 310.53 L34.35 305.88 L11.44 305.88 L11.44 310.53 Z" class="st11"/><path d="M0 310.53 L9.19 310.53 L9.19 305.88 L0 305.88 L0 310.53" class="st1"/><path d="M0.12 302.76 L9.3 302.76 L9.3 292.64 L0.12 292.64 L0.12 302.76" class="st1"/><path d="M11.44 310.53 L34.35 310.53 L34.35 305.88 L11.44 305.88 L11.44 310.53" class="st1"/><path d="M12.13 299.27 L34.77 299.27" class="st1"/><path d="M12.13 296.48 L34.77 296.48" class="st1"/><path d="M12.13 293.69 L34.77 293.69" class="st1"/><path d="M12.13 302.06 L22.04 302.06" class="st1"/></g><g id="shape81-218"><text x="10.88" y="323.53" class="st4">TOTP server <tspan x="1.94" class="st12" dy="1.2em">192.168.xxx.xxx</tspan></text></g></g><g id="group163-221" transform="translate(3.95,-145.032)"><title>Firewall</title><desc>Firewall</desc><g id="shape164-222" transform="translate(0.931153,-7.76005)"><title>Sheet.164</title><rect width="119.188" height="56.48" x="0" y="254.052" class="st13"/></g><g id="shape165-226" transform="translate(1.55615,-8.38505)"><title>Sheet.165</title><path d="M0 302.64 L117.94 302.64" class="st14"/><path d="M0 294.75 L117.94 294.75" class="st14"/><path d="M0 286.86 L117.94 286.86" class="st14"/><path d="M0 278.97 L117.94 278.97" class="st14"/><path d="M0 271.08 L117.94 271.08" class="st14"/><path d="M0 263.19 L117.94 263.19" class="st14"/><path d="M29.48 310.53 L29.48 302.64" class="st14"/><path d="M58.97 310.53 L58.97 302.64" class="st14"/><path d="M88.45 310.53 L88.45 302.64" class="st14"/><path d="M14.74 302.64 L14.74 294.75" class="st14"/><path d="M44.23 302.64 L44.23 294.75" class="st14"/><path d="M73.71 302.64 L73.71 294.75" class="st14"/><path d="M103.2 302.64 L103.2 294.75" class="st14"/><path d="M29.48 294.75 L29.48 286.86" class="st14"/><path d="M58.97 294.75 L58.97 286.86" class="st14"/><path d="M88.45 294.75 L88.45 286.86" class="st14"/><path d="M14.74 286.86 L14.74 278.97" class="st14"/><path d="M44.23 286.86 L44.23 278.97" class="st14"/><path d="M73.71 286.86 L73.71 278.97" class="st14"/><path d="M103.2 286.86 L103.2 278.97" class="st14"/><path d="M29.48 278.97 L29.48 271.08" class="st14"/><path d="M58.97 278.97 L58.97 271.08" class="st14"/><path d="M88.45 278.97 L88.45 271.08" class="st14"/><path d="M14.74 271.08 L14.74 263.19" class="st14"/><path d="M44.23 271.08 L44.23 263.19" class="st14"/><path d="M73.71 271.08 L73.71 263.19" class="st14"/><path d="M103.2 271.08 L103.2 263.19" class="st14"/><path d="M29.48 263.19 L29.48 255.3" class="st14"/><path d="M58.97 263.19 L58.97 255.3" class="st14"/><path d="M88.45 263.19 L88.45 255.3" class="st14"/></g><g id="shape163-258"><text x="44.32" y="323.53" class="st4">Firewall</text></g></g></g></svg>