<svg xmlns="http://www.w3.org/2000/svg" xmlns:ev="http://www.w3.org/2001/xml-events" xmlns:xlink="http://www.w3.org/1999/xlink" width="720.333" height="462.043" class="st16" color-interpolation-filters="sRGB" viewBox="0 0 540.25 346.532" xml:space="preserve"><style type="text/css">.st1{stroke:#d49f00;stroke-linecap:butt;stroke-width:1.25}.st2{stroke-opacity:0}.st2,.st3{fill:url(#grad0-74);stroke:#888;stroke-linecap:butt;stroke-width:1.25}.st4{fill:#555;font-family:Franklin Gothic Book;font-size:.833336em}.st5{fill:#fff;stroke:#d49f00;stroke-linecap:butt;stroke-width:1.25}.st6{fill:#d49f00;font-family:Franklin Gothic Book;font-size:1.00001em;font-stretch:semi-expanded}.st7,.st8,.st9{stroke:#888;stroke-linecap:butt;stroke-width:1.25}.st8{fill:#fff}.st9{fill:#a5a5a5}.st10{fill:#fff}.st11{fill:#ffda6a}.st12{font-size:1em}.st13,.st14,.st15{stroke-linecap:butt;stroke-width:1.25}.st13{fill:url(#grad0-201);stroke:#888}.st14,.st15{stroke:#fff}.st15{fill:url(#grad0-243)}.st16{fill:none;fill-rule:evenodd;font-size:12px;overflow:visible;stroke-linecap:square;stroke-miterlimit:3}</style><defs id="Patterns_And_Gradients"><linearGradient id="grad0-6" x1="0" x2="1" y1="0" y2="0" gradientTransform="rotate(90 0.5 0.5)"><stop offset=".02" stop-color="#fff0df" stop-opacity="1"/><stop offset=".34" stop-color="#ffe8cb" stop-opacity="1"/><stop offset=".96" stop-color="#ffd28b" stop-opacity="1"/></linearGradient><linearGradient id="grad0-74" x1="0" x2="1" y1="0" y2="0" gradientTransform="rotate(90 0.5 0.5)"><stop offset=".02" stop-color="#ebebeb" stop-opacity="1"/><stop offset=".34" stop-color="#e0e0e0" stop-opacity="1"/><stop offset=".96" stop-color="#c1c1c1" stop-opacity="1"/></linearGradient><linearGradient id="grad0-167" x1="0" x2="1" y1="0" y2="0" gradientTransform="rotate(90 0.5 0.5)"><stop offset=".01" stop-color="#fff" stop-opacity="1"/><stop offset=".5" stop-color="#fefefe" stop-opacity="1"/><stop offset="1" stop-color="#fff" stop-opacity="1"/></linearGradient><linearGradient id="grad0-171" x1="0" x2="1" y1="0" y2="0" gradientTransform="rotate(270 0.5 0.5)"><stop offset="0" stop-color="#fefefe" stop-opacity="1"/><stop offset="1" stop-color="#fff" stop-opacity="1"/></linearGradient><linearGradient id="grad0-201" x1="0" x2="1" y1="0" y2="0" gradientTransform="rotate(270 0.5 0.5)"><stop offset="0" stop-color="#18536f" stop-opacity="1"/><stop offset=".48" stop-color="#2681ae" stop-opacity="1"/><stop offset="1" stop-color="#68b7dd" stop-opacity="1"/></linearGradient><linearGradient id="grad0-243" x1="0" x2="1" y1="0" y2="0" gradientTransform="rotate(90 0.5 0.5)"><stop offset=".02" stop-color="#e2eaf4" stop-opacity="1"/><stop offset=".34" stop-color="#d1deef" stop-opacity="1"/><stop offset=".96" stop-color="#9dbbe0" stop-opacity="1"/></linearGradient></defs><g><title>Page-1</title><g id="group16-1" transform="translate(1.25,-327.282)"><title>Ethernet</title><desc>https://*.partners.extranet...</desc><g id="group17-2"><title>Sheet.17</title><g id="shape17-3"><path d="M72.31 337.53 L144.62 337.53" class="st1"/><path d="M72.31 337.53 L144.62 337.53" class="st1"/><path d="M216 341.81 L216 337.53 L144.62 337.53" class="st1"/><path d="M72.31 337.53 L144.62 337.53" class="st1"/><path d="M216.93 337.53 L144.62 337.53" class="st1"/><path d="M90 463.53 L90 337.53 L144.62 337.53" class="st1"/><path d="M216.93 337.53 L144.62 337.53" class="st1"/><path d="M72.31 337.53 L144.62 337.53" class="st1"/><path d="M216.93 337.53 L144.62 337.53" class="st1"/><path d="M72.31 337.53 L144.62 337.53" class="st1"/><path d="M216.93 337.53 L144.62 337.53" class="st1"/><path d="M72.31 337.53 L144.62 337.53" class="st1"/><path d="M216.93 337.53 L144.62 337.53" class="st1"/><path d="M72.31 337.53 L144.62 337.53" class="st1"/><path d="M216.93 337.53 L144.62 337.53" class="st1"/><path d="M72.31 337.53 L144.62 337.53" class="st1"/><path d="M216.93 337.53 L144.62 337.53" class="st1"/><path d="M72.31 337.53 L144.62 337.53" class="st1"/><path d="M216.93 337.53 L144.62 337.53" class="st1"/><path d="M72.31 337.53 L144.62 337.53" class="st1"/><path d="M216.93 337.53 L144.62 337.53" class="st1"/><path d="M72.31 337.53 L144.62 337.53" class="st1"/><path d="M216.93 337.53 L144.62 337.53" class="st1"/><path d="M72.31 337.53 L144.62 337.53" class="st1"/><path d="M216.93 337.53 L144.62 337.53" class="st1"/><path d="M72.31 337.53 L144.62 337.53" class="st1"/><path d="M216.93 337.53 L144.62 337.53" class="st1"/><path d="M72.31 337.53 L144.62 337.53" class="st1"/><path d="M216.93 337.53 L144.62 337.53" class="st1"/><path d="M72.31 337.53 L144.62 337.53" class="st1"/><path d="M216.93 337.53 L144.62 337.53" class="st1"/><path d="M72.31 337.53 L144.62 337.53" class="st1"/><path d="M216.93 337.53 L144.62 337.53" class="st1"/><path d="M72.31 337.53 L144.62 337.53" class="st1"/><path d="M216.93 337.53 L144.62 337.53" class="st1"/><path d="M72.31 337.53 L144.62 337.53" class="st1"/><path d="M216.93 337.53 L144.62 337.53" class="st1"/><path d="M72.31 337.53 L144.62 337.53" class="st1"/><path d="M216.93 337.53 L144.62 337.53" class="st1"/><path d="M72.31 337.53 L144.62 337.53" class="st1"/><path d="M216.93 337.53 L144.62 337.53" class="st1"/><path d="M72.31 337.53 L144.62 337.53" class="st1"/><path d="M216.93 337.53 L144.62 337.53" class="st1"/><path d="M72.31 337.53 L144.62 337.53" class="st1"/><path d="M216.93 337.53 L144.62 337.53" class="st1"/><path d="M72.31 337.53 L144.62 337.53" class="st1"/><path d="M216.93 337.53 L144.62 337.53" class="st1"/><path d="M72.31 337.53 L144.62 337.53" class="st1"/><path d="M216.93 337.53 L144.62 337.53" class="st1"/><path d="M72.31 337.53 L144.62 337.53" class="st1"/><path d="M216.93 337.53 L144.62 337.53" class="st1"/><path d="M72.31 337.53 L144.62 337.53" class="st1"/><path d="M216.93 337.53 L144.62 337.53" class="st1"/><path d="M72.31 337.53 L144.62 337.53" class="st1"/><path d="M216.93 337.53 L144.62 337.53" class="st1"/><path d="M72.31 337.53 L144.62 337.53" class="st1"/><path d="M216.93 337.53 L144.62 337.53" class="st1"/><path d="M72.31 337.53 L144.62 337.53" class="st1"/><path d="M216.93 337.53 L144.62 337.53" class="st1"/><path d="M72.31 337.53 L144.62 337.53" class="st1"/><path d="M216.93 337.53 L144.62 337.53" class="st1"/><path d="M72.31 337.53 L144.62 337.53" class="st1"/><path d="M216.93 337.53 L144.62 337.53" class="st1"/><path d="M72.31 337.53 L144.62 337.53" class="st1"/></g></g><g id="shape18-71"><title>Sheet.18</title><path d="M75.91 337.53 A3.6 3.6 -180 1 0 68.71 337.53 A3.6 3.6 -180 1 0 75.91 337.53 ZM75.91 337.53 A3.6 3.6 -180 1 0 68.71 337.53 A3.6 3.6 -180 1 0 75.91 337.53 ZM219.6 341.81 A3.6 3.6 -180 1 0 212.4 341.81 A3.6 3.6 -180 1 0 219.6 341.81 ZM75.91 337.53 A3.6 3.6 -180 1 0 68.71 337.53 A3.6 3.6 -180 1 0 75.91 337.53 ZM220.53 337.53 A3.6 3.6 -180 1 0 213.33 337.53 A3.6 3.6 -180 1 0 220.53 337.53 ZM93.6 463.53 A3.6 3.6 -180 1 0 86.4 463.53 A3.6 3.6 -180 1 0 93.6 463.53 ZM220.53 337.53 A3.6 3.6 -180 1 0 213.33 337.53 A3.6 3.6 -180 1 0 220.53 337.53 ZM75.91 337.53 A3.6 3.6 -180 1 0 68.71 337.53 A3.6 3.6 -180 1 0 75.91 337.53 ZM220.53 337.53 A3.6 3.6 -180 1 0 213.33 337.53 A3.6 3.6 -180 1 0 220.53 337.53 ZM75.91 337.53 A3.6 3.6 -180 1 0 68.71 337.53 A3.6 3.6 -180 1 0 75.91 337.53 ZM220.53 337.53 A3.6 3.6 -180 1 0 213.33 337.53 A3.6 3.6 -180 1 0 220.53 337.53 ZM75.91 337.53 A3.6 3.6 -180 1 0 68.71 337.53 A3.6 3.6 -180 1 0 75.91 337.53 ZM220.53 337.53 A3.6 3.6 -180 1 0 213.33 337.53 A3.6 3.6 -180 1 0 220.53 337.53 ZM75.91 337.53 A3.6 3.6 -180 1 0 68.71 337.53 A3.6 3.6 -180 1 0 75.91 337.53 ZM220.53 337.53 A3.6 3.6 -180 1 0 213.33 337.53 A3.6 3.6 -180 1 0 220.53 337.53 ZM75.91 337.53 A3.6 3.6 -180 1 0 68.71 337.53 A3.6 3.6 -180 1 0 75.91 337.53 ZM220.53 337.53 A3.6 3.6 -180 1 0 213.33 337.53 A3.6 3.6 -180 1 0 220.53 337.53 ZM75.91 337.53 A3.6 3.6 -180 1 0 68.71 337.53 A3.6 3.6 -180 1 0 75.91 337.53 ZM220.53 337.53 A3.6 3.6 -180 1 0 213.33 337.53 A3.6 3.6 -180 1 0 220.53 337.53 ZM75.91 337.53 A3.6 3.6 -180 1 0 68.71 337.53 A3.6 3.6 -180 1 0 75.91 337.53 ZM220.53 337.53 A3.6 3.6 -180 1 0 213.33 337.53 A3.6 3.6 -180 1 0 220.53 337.53 ZM75.91 337.53 A3.6 3.6 -180 1 0 68.71 337.53 A3.6 3.6 -180 1 0 75.91 337.53 ZM220.53 337.53 A3.6 3.6 -180 1 0 213.33 337.53 A3.6 3.6 -180 1 0 220.53 337.53 ZM75.91 337.53 A3.6 3.6 -180 1 0 68.71 337.53 A3.6 3.6 -180 1 0 75.91 337.53 ZM220.53 337.53 A3.6 3.6 -180 1 0 213.33 337.53 A3.6 3.6 -180 1 0 220.53 337.53 ZM75.91 337.53 A3.6 3.6 -180 1 0 68.71 337.53 A3.6 3.6 -180 1 0 75.91 337.53 ZM220.53 337.53 A3.6 3.6 -180 1 0 213.33 337.53 A3.6 3.6 -180 1 0 220.53 337.53 ZM75.91 337.53 A3.6 3.6 -180 1 0 68.71 337.53 A3.6 3.6 -180 1 0 75.91 337.53 ZM220.53 337.53 A3.6 3.6 -180 1 0 213.33 337.53 A3.6 3.6 -180 1 0 220.53 337.53 ZM75.91 337.53 A3.6 3.6 -180 1 0 68.71 337.53 A3.6 3.6 -180 1 0 75.91 337.53 ZM220.53 337.53 A3.6 3.6 -180 1 0 213.33 337.53 A3.6 3.6 -180 1 0 220.53 337.53 ZM75.91 337.53 A3.6 3.6 -180 1 0 68.71 337.53 A3.6 3.6 -180 1 0 75.91 337.53 ZM220.53 337.53 A3.6 3.6 -180 1 0 213.33 337.53 A3.6 3.6 -180 1 0 220.53 337.53 ZM75.91 337.53 A3.6 3.6 -180 1 0 68.71 337.53 A3.6 3.6 -180 1 0 75.91 337.53 ZM220.53 337.53 A3.6 3.6 -180 1 0 213.33 337.53 A3.6 3.6 -180 1 0 220.53 337.53 ZM75.91 337.53 A3.6 3.6 -180 1 0 68.71 337.53 A3.6 3.6 -180 1 0 75.91 337.53 ZM220.53 337.53 A3.6 3.6 -180 1 0 213.33 337.53 A3.6 3.6 -180 1 0 220.53 337.53 ZM75.91 337.53 A3.6 3.6 -180 1 0 68.71 337.53 A3.6 3.6 -180 1 0 75.91 337.53 ZM220.53 337.53 A3.6 3.6 -180 1 0 213.33 337.53 A3.6 3.6 -180 1 0 220.53 337.53 ZM75.91 337.53 A3.6 3.6 -180 1 0 68.71 337.53 A3.6 3.6 -180 1 0 75.91 337.53 ZM220.53 337.53 A3.6 3.6 -180 1 0 213.33 337.53 A3.6 3.6 -180 1 0 220.53 337.53 ZM75.91 337.53 A3.6 3.6 -180 1 0 68.71 337.53 A3.6 3.6 -180 1 0 75.91 337.53 ZM220.53 337.53 A3.6 3.6 -180 1 0 213.33 337.53 A3.6 3.6 -180 1 0 220.53 337.53 ZM75.91 337.53 A3.6 3.6 -180 1 0 68.71 337.53 A3.6 3.6 -180 1 0 75.91 337.53 ZM220.53 337.53 A3.6 3.6 -180 1 0 213.33 337.53 A3.6 3.6 -180 1 0 220.53 337.53 ZM75.91 337.53 A3.6 3.6 -180 1 0 68.71 337.53 A3.6 3.6 -180 1 0 75.91 337.53 ZM220.53 337.53 A3.6 3.6 -180 1 0 213.33 337.53 A3.6 3.6 -180 1 0 220.53 337.53 ZM75.91 337.53 A3.6 3.6 -180 1 0 68.71 337.53 A3.6 3.6 -180 1 0 75.91 337.53 ZM220.53 337.53 A3.6 3.6 -180 1 0 213.33 337.53 A3.6 3.6 -180 1 0 220.53 337.53 ZM75.91 337.53 A3.6 3.6 -180 1 0 68.71 337.53 A3.6 3.6 -180 1 0 75.91 337.53 ZM220.53 337.53 A3.6 3.6 -180 1 0 213.33 337.53 A3.6 3.6 -180 1 0 220.53 337.53 ZM75.91 337.53 A3.6 3.6 -180 1 0 68.71 337.53 A3.6 3.6 -180 1 0 75.91 337.53 ZM220.53 337.53 A3.6 3.6 -180 1 0 213.33 337.53 A3.6 3.6 -180 1 0 220.53 337.53 ZM75.91 337.53 A3.6 3.6 -180 1 0 68.71 337.53 A3.6 3.6 -180 1 0 75.91 337.53 ZM220.53 337.53 A3.6 3.6 -180 1 0 213.33 337.53 A3.6 3.6 -180 1 0 220.53 337.53 ZM75.91 337.53 A3.6 3.6 -180 1 0 68.71 337.53 A3.6 3.6 -180 1 0 75.91 337.53 ZM220.53 337.53 A3.6 3.6 -180 1 0 213.33 337.53 A3.6 3.6 -180 1 0 220.53 337.53 ZM75.91 337.53 A3.6 3.6 -180 1 0 68.71 337.53 A3.6 3.6 -180 1 0 75.91 337.53 ZM220.53 337.53 A3.6 3.6 -180 1 0 213.33 337.53 A3.6 3.6 -180 1 0 220.53 337.53 ZM75.91 337.53 A3.6 3.6 -180 1 0 68.71 337.53 A3.6 3.6 -180 1 0 75.91 337.53 ZM220.53 337.53 A3.6 3.6 -180 1 0 213.33 337.53 A3.6 3.6 -180 1 0 220.53 337.53 ZM75.91 337.53 A3.6 3.6 -180 1 0 68.71 337.53 A3.6 3.6 -180 1 0 75.91 337.53 ZM220.53 337.53 A3.6 3.6 -180 1 0 213.33 337.53 A3.6 3.6 -180 1 0 220.53 337.53 ZM75.91 337.53 A3.6 3.6 -180 1 0 68.71 337.53 A3.6 3.6 -180 1 0 75.91 337.53 Z" class="st2"/></g><g id="shape19-75"><title>Sheet.19</title><rect width="289.234" height="18" x="0" y="328.532" class="st3"/></g><g id="shape16-78"><text x="83.69" y="340.53" class="st4">https://*.partners.extranet...</text></g></g><g id="group24-80" transform="translate(3.95,-1.25)"><title>Ethernet.328</title><desc>Intranet 192.168.xxx.xxx</desc><g id="group25-81"><title>Sheet.25</title><g id="shape25-82"><path d="M84.36 192.63 L84.36 337.53 L267.53 337.53" class="st1"/><path d="M133.76 337.53 L267.53 337.53" class="st1"/><path d="M133.76 337.53 L267.53 337.53" class="st1"/><path d="M283.4 192.63 L283.4 337.53 L267.53 337.53" class="st1"/><path d="M426.05 192.63 L426.05 337.53 L267.53 337.53" class="st1"/><path d="M133.76 337.53 L267.53 337.53" class="st1"/><path d="M401.29 337.53 L267.53 337.53" class="st1"/><path d="M133.76 337.53 L267.53 337.53" class="st1"/><path d="M401.29 337.53 L267.53 337.53" class="st1"/><path d="M133.76 337.53 L267.53 337.53" class="st1"/><path d="M401.29 337.53 L267.53 337.53" class="st1"/><path d="M133.76 337.53 L267.53 337.53" class="st1"/><path d="M401.29 337.53 L267.53 337.53" class="st1"/><path d="M133.76 337.53 L267.53 337.53" class="st1"/><path d="M401.29 337.53 L267.53 337.53" class="st1"/><path d="M133.76 337.53 L267.53 337.53" class="st1"/><path d="M401.29 337.53 L267.53 337.53" class="st1"/><path d="M133.76 337.53 L267.53 337.53" class="st1"/><path d="M401.29 337.53 L267.53 337.53" class="st1"/><path d="M133.76 337.53 L267.53 337.53" class="st1"/><path d="M401.29 337.53 L267.53 337.53" class="st1"/><path d="M133.76 337.53 L267.53 337.53" class="st1"/><path d="M401.29 337.53 L267.53 337.53" class="st1"/><path d="M133.76 337.53 L267.53 337.53" class="st1"/><path d="M401.29 337.53 L267.53 337.53" class="st1"/><path d="M133.76 337.53 L267.53 337.53" class="st1"/><path d="M401.29 337.53 L267.53 337.53" class="st1"/><path d="M133.76 337.53 L267.53 337.53" class="st1"/><path d="M401.29 337.53 L267.53 337.53" class="st1"/><path d="M133.76 337.53 L267.53 337.53" class="st1"/><path d="M401.29 337.53 L267.53 337.53" class="st1"/><path d="M133.76 337.53 L267.53 337.53" class="st1"/><path d="M401.29 337.53 L267.53 337.53" class="st1"/><path d="M133.76 337.53 L267.53 337.53" class="st1"/><path d="M401.29 337.53 L267.53 337.53" class="st1"/><path d="M133.76 337.53 L267.53 337.53" class="st1"/><path d="M401.29 337.53 L267.53 337.53" class="st1"/><path d="M133.76 337.53 L267.53 337.53" class="st1"/><path d="M401.29 337.53 L267.53 337.53" class="st1"/><path d="M133.76 337.53 L267.53 337.53" class="st1"/><path d="M401.29 337.53 L267.53 337.53" class="st1"/><path d="M133.76 337.53 L267.53 337.53" class="st1"/><path d="M401.29 337.53 L267.53 337.53" class="st1"/><path d="M133.76 337.53 L267.53 337.53" class="st1"/><path d="M401.29 337.53 L267.53 337.53" class="st1"/><path d="M133.76 337.53 L267.53 337.53" class="st1"/><path d="M401.29 337.53 L267.53 337.53" class="st1"/><path d="M133.76 337.53 L267.53 337.53" class="st1"/><path d="M401.29 337.53 L267.53 337.53" class="st1"/><path d="M133.76 337.53 L267.53 337.53" class="st1"/><path d="M401.29 337.53 L267.53 337.53" class="st1"/><path d="M133.76 337.53 L267.53 337.53" class="st1"/><path d="M401.29 337.53 L267.53 337.53" class="st1"/><path d="M133.76 337.53 L267.53 337.53" class="st1"/><path d="M401.29 337.53 L267.53 337.53" class="st1"/><path d="M133.76 337.53 L267.53 337.53" class="st1"/><path d="M401.29 337.53 L267.53 337.53" class="st1"/><path d="M133.76 337.53 L267.53 337.53" class="st1"/><path d="M401.29 337.53 L267.53 337.53" class="st1"/><path d="M133.76 337.53 L267.53 337.53" class="st1"/><path d="M401.29 337.53 L267.53 337.53" class="st1"/><path d="M133.76 337.53 L267.53 337.53" class="st1"/><path d="M401.29 337.53 L267.53 337.53" class="st1"/><path d="M133.76 337.53 L267.53 337.53" class="st1"/></g></g><g id="shape26-149"><title>Sheet.26</title><path d="M87.96 192.63 A3.6 3.6 -180 1 0 80.76 192.63 A3.6 3.6 -180 1 0 87.96 192.63 ZM137.36 337.53 A3.6 3.6 -180 1 0 130.16 337.53 A3.6 3.6 -180 1 0 137.36 337.53 ZM137.36 337.53 A3.6 3.6 -180 1 0 130.16 337.53 A3.6 3.6 -180 1 0 137.36 337.53 ZM287 192.63 A3.6 3.6 -180 1 0 279.8 192.63 A3.6 3.6 -180 1 0 287 192.63 ZM429.65 192.63 A3.6 3.6 -180 1 0 422.45 192.63 A3.6 3.6 -180 1 0 429.65 192.63 ZM137.36 337.53 A3.6 3.6 -180 1 0 130.16 337.53 A3.6 3.6 -180 1 0 137.36 337.53 ZM404.89 337.53 A3.6 3.6 -180 1 0 397.69 337.53 A3.6 3.6 -180 1 0 404.89 337.53 ZM137.36 337.53 A3.6 3.6 -180 1 0 130.16 337.53 A3.6 3.6 -180 1 0 137.36 337.53 ZM404.89 337.53 A3.6 3.6 -180 1 0 397.69 337.53 A3.6 3.6 -180 1 0 404.89 337.53 ZM137.36 337.53 A3.6 3.6 -180 1 0 130.16 337.53 A3.6 3.6 -180 1 0 137.36 337.53 ZM404.89 337.53 A3.6 3.6 -180 1 0 397.69 337.53 A3.6 3.6 -180 1 0 404.89 337.53 ZM137.36 337.53 A3.6 3.6 -180 1 0 130.16 337.53 A3.6 3.6 -180 1 0 137.36 337.53 ZM404.89 337.53 A3.6 3.6 -180 1 0 397.69 337.53 A3.6 3.6 -180 1 0 404.89 337.53 ZM137.36 337.53 A3.6 3.6 -180 1 0 130.16 337.53 A3.6 3.6 -180 1 0 137.36 337.53 ZM404.89 337.53 A3.6 3.6 -180 1 0 397.69 337.53 A3.6 3.6 -180 1 0 404.89 337.53 ZM137.36 337.53 A3.6 3.6 -180 1 0 130.16 337.53 A3.6 3.6 -180 1 0 137.36 337.53 ZM404.89 337.53 A3.6 3.6 -180 1 0 397.69 337.53 A3.6 3.6 -180 1 0 404.89 337.53 ZM137.36 337.53 A3.6 3.6 -180 1 0 130.16 337.53 A3.6 3.6 -180 1 0 137.36 337.53 ZM404.89 337.53 A3.6 3.6 -180 1 0 397.69 337.53 A3.6 3.6 -180 1 0 404.89 337.53 ZM137.36 337.53 A3.6 3.6 -180 1 0 130.16 337.53 A3.6 3.6 -180 1 0 137.36 337.53 ZM404.89 337.53 A3.6 3.6 -180 1 0 397.69 337.53 A3.6 3.6 -180 1 0 404.89 337.53 ZM137.36 337.53 A3.6 3.6 -180 1 0 130.16 337.53 A3.6 3.6 -180 1 0 137.36 337.53 ZM404.89 337.53 A3.6 3.6 -180 1 0 397.69 337.53 A3.6 3.6 -180 1 0 404.89 337.53 ZM137.36 337.53 A3.6 3.6 -180 1 0 130.16 337.53 A3.6 3.6 -180 1 0 137.36 337.53 ZM404.89 337.53 A3.6 3.6 -180 1 0 397.69 337.53 A3.6 3.6 -180 1 0 404.89 337.53 ZM137.36 337.53 A3.6 3.6 -180 1 0 130.16 337.53 A3.6 3.6 -180 1 0 137.36 337.53 ZM404.89 337.53 A3.6 3.6 -180 1 0 397.69 337.53 A3.6 3.6 -180 1 0 404.89 337.53 ZM137.36 337.53 A3.6 3.6 -180 1 0 130.16 337.53 A3.6 3.6 -180 1 0 137.36 337.53 ZM404.89 337.53 A3.6 3.6 -180 1 0 397.69 337.53 A3.6 3.6 -180 1 0 404.89 337.53 ZM137.36 337.53 A3.6 3.6 -180 1 0 130.16 337.53 A3.6 3.6 -180 1 0 137.36 337.53 ZM404.89 337.53 A3.6 3.6 -180 1 0 397.69 337.53 A3.6 3.6 -180 1 0 404.89 337.53 ZM137.36 337.53 A3.6 3.6 -180 1 0 130.16 337.53 A3.6 3.6 -180 1 0 137.36 337.53 ZM404.89 337.53 A3.6 3.6 -180 1 0 397.69 337.53 A3.6 3.6 -180 1 0 404.89 337.53 ZM137.36 337.53 A3.6 3.6 -180 1 0 130.16 337.53 A3.6 3.6 -180 1 0 137.36 337.53 ZM404.89 337.53 A3.6 3.6 -180 1 0 397.69 337.53 A3.6 3.6 -180 1 0 404.89 337.53 ZM137.36 337.53 A3.6 3.6 -180 1 0 130.16 337.53 A3.6 3.6 -180 1 0 137.36 337.53 ZM404.89 337.53 A3.6 3.6 -180 1 0 397.69 337.53 A3.6 3.6 -180 1 0 404.89 337.53 ZM137.36 337.53 A3.6 3.6 -180 1 0 130.16 337.53 A3.6 3.6 -180 1 0 137.36 337.53 ZM404.89 337.53 A3.6 3.6 -180 1 0 397.69 337.53 A3.6 3.6 -180 1 0 404.89 337.53 ZM137.36 337.53 A3.6 3.6 -180 1 0 130.16 337.53 A3.6 3.6 -180 1 0 137.36 337.53 ZM404.89 337.53 A3.6 3.6 -180 1 0 397.69 337.53 A3.6 3.6 -180 1 0 404.89 337.53 ZM137.36 337.53 A3.6 3.6 -180 1 0 130.16 337.53 A3.6 3.6 -180 1 0 137.36 337.53 ZM404.89 337.53 A3.6 3.6 -180 1 0 397.69 337.53 A3.6 3.6 -180 1 0 404.89 337.53 ZM137.36 337.53 A3.6 3.6 -180 1 0 130.16 337.53 A3.6 3.6 -180 1 0 137.36 337.53 ZM404.89 337.53 A3.6 3.6 -180 1 0 397.69 337.53 A3.6 3.6 -180 1 0 404.89 337.53 ZM137.36 337.53 A3.6 3.6 -180 1 0 130.16 337.53 A3.6 3.6 -180 1 0 137.36 337.53 ZM404.89 337.53 A3.6 3.6 -180 1 0 397.69 337.53 A3.6 3.6 -180 1 0 404.89 337.53 ZM137.36 337.53 A3.6 3.6 -180 1 0 130.16 337.53 A3.6 3.6 -180 1 0 137.36 337.53 ZM404.89 337.53 A3.6 3.6 -180 1 0 397.69 337.53 A3.6 3.6 -180 1 0 404.89 337.53 ZM137.36 337.53 A3.6 3.6 -180 1 0 130.16 337.53 A3.6 3.6 -180 1 0 137.36 337.53 ZM404.89 337.53 A3.6 3.6 -180 1 0 397.69 337.53 A3.6 3.6 -180 1 0 404.89 337.53 ZM137.36 337.53 A3.6 3.6 -180 1 0 130.16 337.53 A3.6 3.6 -180 1 0 137.36 337.53 ZM404.89 337.53 A3.6 3.6 -180 1 0 397.69 337.53 A3.6 3.6 -180 1 0 404.89 337.53 ZM137.36 337.53 A3.6 3.6 -180 1 0 130.16 337.53 A3.6 3.6 -180 1 0 137.36 337.53 ZM404.89 337.53 A3.6 3.6 -180 1 0 397.69 337.53 A3.6 3.6 -180 1 0 404.89 337.53 ZM137.36 337.53 A3.6 3.6 -180 1 0 130.16 337.53 A3.6 3.6 -180 1 0 137.36 337.53 ZM404.89 337.53 A3.6 3.6 -180 1 0 397.69 337.53 A3.6 3.6 -180 1 0 404.89 337.53 ZM137.36 337.53 A3.6 3.6 -180 1 0 130.16 337.53 A3.6 3.6 -180 1 0 137.36 337.53 ZM404.89 337.53 A3.6 3.6 -180 1 0 397.69 337.53 A3.6 3.6 -180 1 0 404.89 337.53 ZM137.36 337.53 A3.6 3.6 -180 1 0 130.16 337.53 A3.6 3.6 -180 1 0 137.36 337.53 ZM404.89 337.53 A3.6 3.6 -180 1 0 397.69 337.53 A3.6 3.6 -180 1 0 404.89 337.53 ZM137.36 337.53 A3.6 3.6 -180 1 0 130.16 337.53 A3.6 3.6 -180 1 0 137.36 337.53 ZM404.89 337.53 A3.6 3.6 -180 1 0 397.69 337.53 A3.6 3.6 -180 1 0 404.89 337.53 ZM137.36 337.53 A3.6 3.6 -180 1 0 130.16 337.53 A3.6 3.6 -180 1 0 137.36 337.53 Z" class="st2"/></g><g id="shape27-152"><title>Sheet.27</title><rect width="535.05" height="18" x="0" y="328.532" class="st3"/></g><g id="shape24-155"><text x="215.58" y="340.53" class="st4">Intranet 192.168.xxx.xxx</text></g></g><g id="group57-157" transform="translate(202.75,-64.2518)"><title>Plain.153</title><g id="group58-158"><title>Sheet.58</title><g id="shape59-159" transform="translate(2.88,2.88)"><title>Sheet.59</title></g><g id="shape58-161"><path d="M0 346.53 L151.25 346.53 L302.5 346.53 L302.5 169 L151.25 169 L0 169 L0 346.53 Z" class="st5"/></g></g><g id="group60-163" transform="translate(0,-155.03)"><title>Sheet.60</title><desc>Partner Application Servers and Clients</desc><g id="shape61-164"><title>Sheet.61</title></g><g id="shape60-168"><text x="6" y="338.88" class="st6">Partner Application Servers and Clients</text></g></g></g><g id="group81-173" transform="translate(394,-119.152)"><title>Application server.170</title><desc>TOTP server 192.168.xxx.xxx</desc><g id="shape82-174" transform="translate(22.5,-23.625)"><title>Sheet.82</title><path d="M0 346.53 L30.36 346.53" class="st7"/></g><g id="shape83-178" transform="translate(0,-8.95746)"><title>Sheet.83</title><path d="M0 324.78 L46.06 324.78 L46.06 292.45 L0 292.45 L0 324.78 ZM52.86 346.53 L72 346.53 L72 316.54 L52.86 316.54 L52.86 346.53 Z" class="st8"/></g><g id="shape84-180" transform="translate(0,-13.873)"><title>Sheet.84</title><path d="M0 303.4 L46.07 303.4 L46.07 297.36 L0 297.36 L0 303.4 ZM60.23 346.53 L69.57 346.53 L69.57 345.78 L60.23 345.78 L60.23 346.53 ZM60.23 344.26 L69.57 344.26 L69.57 343.51 L60.23 343.51 L60.23 344.26 ZM60.23 341.99 L69.57 341.99 L69.57 341.23 L60.23 341.23 L60.23 341.99 ZM69.38 337.49 A1.15739 1.15739 -180 1 0 67.06 337.49 A1.15739 1.15739 -180 1 0 69.38 337.49 Z" class="st9"/></g><g id="shape85-182" transform="translate(41.9217,-58.572)"><title>Sheet.85</title><path d="M1.45 344.72 L0.37 343.63 L0 344 L1.08 345.08 L0 346.17 L0.37 346.53 L1.45 345.45 L2.53 346.53 L2.9 346.17 L1.82 345.08 L2.9 344 L2.53 343.63 L1.45 344.72 Z" class="st10"/></g><g id="shape86-185" transform="translate(5.54378,-35.2265)"><title>Sheet.86</title><path d="M0 346.53 L9.19 346.53 L9.19 341.88 L0 341.88 L0 346.53 ZM0.12 338.76 L9.3 338.76 L9.3 328.64 L0.12 328.64 L0.12 338.76 ZM11.44 346.53 L34.35 346.53 L34.35 341.88 L11.44 341.88 L11.44 346.53 Z" class="st11"/><path d="M0 346.53 L9.19 346.53 L9.19 341.88 L0 341.88 L0 346.53" class="st1"/><path d="M0.12 338.76 L9.3 338.76 L9.3 328.64 L0.12 328.64 L0.12 338.76" class="st1"/><path d="M11.44 346.53 L34.35 346.53 L34.35 341.88 L11.44 341.88 L11.44 346.53" class="st1"/><path d="M12.13 335.27 L34.77 335.27" class="st1"/><path d="M12.13 332.48 L34.77 332.48" class="st1"/><path d="M12.13 329.69 L34.77 329.69" class="st1"/><path d="M12.13 338.06 L22.04 338.06" class="st1"/></g><g id="shape81-194"><text x="10.88" y="359.53" class="st4">TOTP server <tspan x="1.94" class="st12" dy="1.2em">192.168.xxx.xxx</tspan></text></g></g><g id="group163-197" transform="translate(3.95,-145.032)"><title>Firewall</title><desc>Firewall</desc><g id="shape164-198" transform="translate(0.931153,-7.76005)"><title>Sheet.164</title><rect width="119.188" height="56.48" x="0" y="290.052" class="st13"/></g><g id="shape165-202" transform="translate(1.55615,-8.38505)"><title>Sheet.165</title><path d="M0 338.64 L117.94 338.64" class="st14"/><path d="M0 330.75 L117.94 330.75" class="st14"/><path d="M0 322.86 L117.94 322.86" class="st14"/><path d="M0 314.97 L117.94 314.97" class="st14"/><path d="M0 307.08 L117.94 307.08" class="st14"/><path d="M0 299.19 L117.94 299.19" class="st14"/><path d="M29.48 346.53 L29.48 338.64" class="st14"/><path d="M58.97 346.53 L58.97 338.64" class="st14"/><path d="M88.45 346.53 L88.45 338.64" class="st14"/><path d="M14.74 338.64 L14.74 330.75" class="st14"/><path d="M44.23 338.64 L44.23 330.75" class="st14"/><path d="M73.71 338.64 L73.71 330.75" class="st14"/><path d="M103.2 338.64 L103.2 330.75" class="st14"/><path d="M29.48 330.75 L29.48 322.86" class="st14"/><path d="M58.97 330.75 L58.97 322.86" class="st14"/><path d="M88.45 330.75 L88.45 322.86" class="st14"/><path d="M14.74 322.86 L14.74 314.97" class="st14"/><path d="M44.23 322.86 L44.23 314.97" class="st14"/><path d="M73.71 322.86 L73.71 314.97" class="st14"/><path d="M103.2 322.86 L103.2 314.97" class="st14"/><path d="M29.48 314.97 L29.48 307.08" class="st14"/><path d="M58.97 314.97 L58.97 307.08" class="st14"/><path d="M88.45 314.97 L88.45 307.08" class="st14"/><path d="M14.74 307.08 L14.74 299.19" class="st14"/><path d="M44.23 307.08 L44.23 299.19" class="st14"/><path d="M73.71 307.08 L73.71 299.19" class="st14"/><path d="M103.2 307.08 L103.2 299.19" class="st14"/><path d="M29.48 299.19 L29.48 291.3" class="st14"/><path d="M58.97 299.19 L58.97 291.3" class="st14"/><path d="M88.45 299.19 L88.45 291.3" class="st14"/></g><g id="shape163-234"><text x="44.32" y="359.53" class="st4">Firewall</text></g></g><g id="group167-236" transform="translate(250,-119.152)"><title>PC</title><desc>Client machine w/ ACVP client app 192.168.xxx.xxx</desc><g id="shape168-237" transform="translate(0,-4.80179)"><title>Sheet.168</title><path d="M48.77 328.85 L48.77 334.93 L52.45 334.93 L55.92 339.28 L72 339.28 L72 284.14 L48.77 284.14 L48.77 292.05 L58.74 292.05 L58.74 328.85 L48.77 328.85 ZM58.74 292.05 L3.59 292.05 L3.59 328.85 L58.74 328.85 L58.74 292.05 ZM61.71 346.53 L52.45 334.93 L9.26 334.93 L0 346.53 L61.71 346.53 ZM35.7 328.85 L26 328.85 L26 334.93 L35.7 334.93 L35.7 328.85 Z" class="st3"/></g><g id="shape169-240" transform="translate(7.16567,-25.7993)"><title>Sheet.169</title><path d="M48.07 316.69 L0 316.69 L0 346.53 L48.07 346.53 L48.07 316.69 Z" class="st15"/></g><g id="shape170-244" transform="translate(8.39752,-7.19698)"><title>Sheet.170</title><path d="M54.3 292.7 L59.27 292.7 L59.27 290.77 L54.3 290.77 L54.3 292.7 ZM54.3 296.16 L59.27 296.16 L59.27 294.22 L54.3 294.22 L54.3 296.16 ZM42.14 342.03 L39.39 342.03 L40.93 343.74 L43.88 343.74 L42.14 342.03 ZM39.03 339 L36.67 339 L38.32 340.84 L40.91 340.84 L39.03 339 ZM37.92 342.03 L35.18 342.03 L36.38 343.74 L39.34 343.74 L37.92 342.03 ZM35.4 339 L33.04 339 L34.33 340.84 L36.93 340.84 L35.4 339 ZM33.7 342.03 L30.96 342.03 L31.83 343.74 L34.79 343.74 L33.7 342.03 ZM31.77 339 L29.41 339 L30.36 340.88 L32.95 340.88 L31.77 339 ZM29.48 342.03 L26.74 342.03 L27.28 343.74 L30.24 343.74 L29.48 342.03 ZM28.19 339.13 L25.81 339.13 L26.37 340.88 L28.97 340.88 L28.19 339.13 ZM25.26 342.03 L22.52 342.03 L22.74 343.74 L25.7 343.74 L25.26 342.03 ZM24.57 339.28 L22.17 339.28 L22.39 340.98 L25 340.98 L24.57 339.28 ZM20.88 339.28 L18.49 339.28 L18.37 340.98 L20.98 340.98 L20.88 339.28 ZM21.05 342.03 L18.3 342.03 L18.19 343.74 L21.15 343.74 L21.05 342.03 ZM17.2 339.28 L14.8 339.28 L14.36 340.98 L16.97 340.98 L17.2 339.28 ZM16.83 342.03 L14.08 342.03 L13.64 343.74 L16.6 343.74 L16.83 342.03 ZM31.87 344.83 L12.52 344.83 L12.02 346.53 L32.71 346.53 L31.87 344.83 ZM13.51 339.28 L11.11 339.28 L10.34 340.98 L12.95 340.98 L13.51 339.28 ZM12.61 342.03 L9.87 342.03 L9.09 343.74 L12.05 343.74 L12.61 342.03 ZM9.82 339.28 L7.43 339.28 L6.32 340.98 L8.94 340.98 L9.82 339.28 ZM8.39 342.03 L5.65 342.03 L4.55 343.74 L7.5 343.74 L8.39 342.03 ZM6.14 339.28 L3.74 339.28 L2.31 340.98 L4.92 340.98 L6.14 339.28 ZM4.17 342.03 L1.43 342.03 L0 343.74 L2.96 343.74 L4.17 342.03 Z" class="st10"/></g><g id="shape167-247"><text x="-36.6" y="359.53" class="st4">Client machine w/ ACVP client app<tspan x="1.94" class="st12" dy="1.2em">192.168.xxx.xxx</tspan></text></g></g></g></svg>